<mxfile host="app.diagrams.net" agent="Mozilla/5.0 (Windows NT 10.0; Win64; x64) AppleWebKit/537.36 (KHTML, like Gecko) Chrome/128.0.0.0 Safari/537.36" version="24.7.7">
  <diagram name="PÃ¡gina-1" id="7CcxhL0Uo0uE2cqfkHds">
    <mxGraphModel dx="1049" dy="632" grid="1" gridSize="10" guides="1" tooltips="1" connect="1" arrows="1" fold="1" page="1" pageScale="1" pageWidth="827" pageHeight="1169" math="0" shadow="0">
      <root>
        <mxCell id="0" />
        <mxCell id="1" parent="0" />
        <mxCell id="zoif_BAcdFIrkg_Ye-2j-30" value="MEDICO" style="rounded=0;whiteSpace=wrap;html=1;fontSize=8;fontStyle=1" vertex="1" parent="1">
          <mxGeometry x="81" y="200.55" width="80" height="40" as="geometry" />
        </mxCell>
        <mxCell id="zoif_BAcdFIrkg_Ye-2j-31" value="CONSULTA" style="rounded=0;whiteSpace=wrap;html=1;fontSize=8;fontStyle=1" vertex="1" parent="1">
          <mxGeometry x="398" y="200.74" width="80" height="40" as="geometry" />
        </mxCell>
        <mxCell id="zoif_BAcdFIrkg_Ye-2j-32" value="PACIENTE" style="rounded=0;whiteSpace=wrap;html=1;fontSize=8;fontStyle=1" vertex="1" parent="1">
          <mxGeometry x="399" y="400.19" width="80" height="40" as="geometry" />
        </mxCell>
        <mxCell id="zoif_BAcdFIrkg_Ye-2j-33" value="CONVENIO" style="rounded=0;whiteSpace=wrap;html=1;fontSize=8;fontStyle=1" vertex="1" parent="1">
          <mxGeometry x="81" y="400" width="80" height="40" as="geometry" />
        </mxCell>
        <mxCell id="zoif_BAcdFIrkg_Ye-2j-34" value="REALIZA" style="rhombus;whiteSpace=wrap;html=1;fontSize=8;fontStyle=1" vertex="1" parent="1">
          <mxGeometry x="240" y="200" width="80" height="40" as="geometry" />
        </mxCell>
        <mxCell id="zoif_BAcdFIrkg_Ye-2j-35" value="" style="endArrow=none;html=1;rounded=0;exitX=1;exitY=0.5;exitDx=0;exitDy=0;fontSize=8;fontStyle=1" edge="1" parent="1" source="zoif_BAcdFIrkg_Ye-2j-30">
          <mxGeometry width="50" height="50" relative="1" as="geometry">
            <mxPoint x="311" y="330.55" as="sourcePoint" />
            <mxPoint x="240" y="220" as="targetPoint" />
          </mxGeometry>
        </mxCell>
        <mxCell id="zoif_BAcdFIrkg_Ye-2j-36" value="" style="endArrow=none;html=1;rounded=0;exitX=1;exitY=0.5;exitDx=0;exitDy=0;entryX=0;entryY=0.5;entryDx=0;entryDy=0;fontSize=8;fontStyle=1" edge="1" parent="1" source="zoif_BAcdFIrkg_Ye-2j-34">
          <mxGeometry width="50" height="50" relative="1" as="geometry">
            <mxPoint x="358" y="220.54000000000002" as="sourcePoint" />
            <mxPoint x="398" y="220.54000000000002" as="targetPoint" />
          </mxGeometry>
        </mxCell>
        <mxCell id="zoif_BAcdFIrkg_Ye-2j-37" value="ATENDE" style="rhombus;whiteSpace=wrap;html=1;fontSize=8;fontStyle=1" vertex="1" parent="1">
          <mxGeometry x="80" y="300.55" width="80" height="40" as="geometry" />
        </mxCell>
        <mxCell id="zoif_BAcdFIrkg_Ye-2j-38" value="" style="endArrow=none;html=1;rounded=0;exitX=0.488;exitY=0.998;exitDx=0;exitDy=0;entryX=0.5;entryY=0;entryDx=0;entryDy=0;fontSize=8;exitPerimeter=0;fontStyle=1" edge="1" parent="1" source="zoif_BAcdFIrkg_Ye-2j-30" target="zoif_BAcdFIrkg_Ye-2j-37">
          <mxGeometry width="50" height="50" relative="1" as="geometry">
            <mxPoint x="170" y="250.55" as="sourcePoint" />
            <mxPoint x="210" y="250.55" as="targetPoint" />
          </mxGeometry>
        </mxCell>
        <mxCell id="zoif_BAcdFIrkg_Ye-2j-39" value="" style="endArrow=none;html=1;rounded=0;exitX=0.5;exitY=1;exitDx=0;exitDy=0;entryX=0.487;entryY=0.001;entryDx=0;entryDy=0;fontSize=8;entryPerimeter=0;fontStyle=1" edge="1" parent="1" target="zoif_BAcdFIrkg_Ye-2j-33">
          <mxGeometry width="50" height="50" relative="1" as="geometry">
            <mxPoint x="119.80000000000001" y="340.55" as="sourcePoint" />
            <mxPoint x="119.80000000000001" y="380.55" as="targetPoint" />
          </mxGeometry>
        </mxCell>
        <mxCell id="zoif_BAcdFIrkg_Ye-2j-40" value="MARCA" style="rhombus;whiteSpace=wrap;html=1;fontSize=8;fontStyle=1" vertex="1" parent="1">
          <mxGeometry x="400" y="300" width="80" height="40" as="geometry" />
        </mxCell>
        <mxCell id="zoif_BAcdFIrkg_Ye-2j-42" value="" style="endArrow=none;html=1;rounded=0;entryX=0.523;entryY=0.986;entryDx=0;entryDy=0;exitX=0.5;exitY=0;exitDx=0;exitDy=0;fontSize=8;entryPerimeter=0;fontStyle=1" edge="1" parent="1" source="zoif_BAcdFIrkg_Ye-2j-40" target="zoif_BAcdFIrkg_Ye-2j-31">
          <mxGeometry width="50" height="50" relative="1" as="geometry">
            <mxPoint x="557" y="300.73999999999984" as="sourcePoint" />
            <mxPoint x="437" y="340.74" as="targetPoint" />
            <Array as="points" />
          </mxGeometry>
        </mxCell>
        <mxCell id="zoif_BAcdFIrkg_Ye-2j-43" value="" style="endArrow=none;html=1;rounded=0;entryX=0.5;entryY=1;entryDx=0;entryDy=0;fontSize=8;fontStyle=1" edge="1" parent="1" target="zoif_BAcdFIrkg_Ye-2j-40">
          <mxGeometry width="50" height="50" relative="1" as="geometry">
            <mxPoint x="440" y="400" as="sourcePoint" />
            <mxPoint x="320" y="340.74" as="targetPoint" />
          </mxGeometry>
        </mxCell>
        <mxCell id="zoif_BAcdFIrkg_Ye-2j-44" value="POSSUI" style="rhombus;whiteSpace=wrap;html=1;fontSize=8;fontStyle=1" vertex="1" parent="1">
          <mxGeometry x="240" y="400" width="80" height="40" as="geometry" />
        </mxCell>
        <mxCell id="zoif_BAcdFIrkg_Ye-2j-45" value="" style="endArrow=none;html=1;rounded=0;entryX=0;entryY=0.5;entryDx=0;entryDy=0;exitX=1;exitY=0.5;exitDx=0;exitDy=0;fontSize=8;fontStyle=1" edge="1" parent="1" source="zoif_BAcdFIrkg_Ye-2j-44" target="zoif_BAcdFIrkg_Ye-2j-32">
          <mxGeometry width="50" height="50" relative="1" as="geometry">
            <mxPoint x="311" y="450" as="sourcePoint" />
            <mxPoint x="361" y="400" as="targetPoint" />
          </mxGeometry>
        </mxCell>
        <mxCell id="zoif_BAcdFIrkg_Ye-2j-46" value="" style="endArrow=none;html=1;rounded=0;exitX=1;exitY=0.5;exitDx=0;exitDy=0;fontSize=8;fontStyle=1" edge="1" parent="1" source="zoif_BAcdFIrkg_Ye-2j-33" target="zoif_BAcdFIrkg_Ye-2j-44">
          <mxGeometry width="50" height="50" relative="1" as="geometry">
            <mxPoint x="161" y="459.8" as="sourcePoint" />
            <mxPoint x="261" y="459.8" as="targetPoint" />
            <Array as="points">
              <mxPoint x="201" y="420" />
            </Array>
          </mxGeometry>
        </mxCell>
        <mxCell id="zoif_BAcdFIrkg_Ye-2j-47" value="" style="endArrow=none;html=1;rounded=0;exitX=0.117;exitY=-0.019;exitDx=0;exitDy=0;exitPerimeter=0;fontSize=8;fontStyle=1" edge="1" parent="1">
          <mxGeometry x="0.9971" y="-40" width="50" height="50" relative="1" as="geometry">
            <mxPoint x="91.36000000000007" y="200.55" as="sourcePoint" />
            <mxPoint x="91" y="80.55" as="targetPoint" />
            <Array as="points" />
            <mxPoint as="offset" />
          </mxGeometry>
        </mxCell>
        <mxCell id="zoif_BAcdFIrkg_Ye-2j-51" value="" style="endArrow=oval;html=1;rounded=0;endFill=0;align=left;fontSize=8;fontStyle=1" edge="1" parent="1">
          <mxGeometry width="50" height="50" relative="1" as="geometry">
            <mxPoint x="91" y="100.55" as="sourcePoint" />
            <mxPoint x="111" y="100.55" as="targetPoint" />
            <Array as="points" />
          </mxGeometry>
        </mxCell>
        <mxCell id="zoif_BAcdFIrkg_Ye-2j-61" value="especialidade" style="edgeLabel;html=1;align=center;verticalAlign=middle;resizable=0;points=[];fontSize=8;fontStyle=1" vertex="1" connectable="0" parent="zoif_BAcdFIrkg_Ye-2j-51">
          <mxGeometry x="0.1581" y="-1" relative="1" as="geometry">
            <mxPoint x="39" y="-2" as="offset" />
          </mxGeometry>
        </mxCell>
        <mxCell id="zoif_BAcdFIrkg_Ye-2j-52" value="" style="endArrow=oval;html=1;rounded=0;startArrow=none;startFill=0;endFill=1;fontSize=8;startSize=6;jumpSize=6;shadow=0;strokeWidth=1;fontStyle=1" edge="1" parent="1">
          <mxGeometry width="50" height="50" relative="1" as="geometry">
            <mxPoint x="91" y="80.55" as="sourcePoint" />
            <mxPoint x="111" y="80.55" as="targetPoint" />
            <Array as="points" />
          </mxGeometry>
        </mxCell>
        <mxCell id="zoif_BAcdFIrkg_Ye-2j-56" value="" style="endArrow=oval;html=1;rounded=0;endFill=0;fontSize=8;fontStyle=1" edge="1" parent="1">
          <mxGeometry width="50" height="50" relative="1" as="geometry">
            <mxPoint x="91" y="120.55000000000001" as="sourcePoint" />
            <mxPoint x="111" y="120.55000000000001" as="targetPoint" />
            <Array as="points" />
          </mxGeometry>
        </mxCell>
        <mxCell id="zoif_BAcdFIrkg_Ye-2j-57" value="" style="endArrow=oval;html=1;rounded=0;endFill=0;fontSize=8;fontStyle=1" edge="1" parent="1">
          <mxGeometry width="50" height="50" relative="1" as="geometry">
            <mxPoint x="91" y="140.55" as="sourcePoint" />
            <mxPoint x="111" y="140.55" as="targetPoint" />
            <Array as="points" />
          </mxGeometry>
        </mxCell>
        <mxCell id="zoif_BAcdFIrkg_Ye-2j-58" value="" style="endArrow=oval;html=1;rounded=0;endFill=0;fontSize=8;fontStyle=1" edge="1" parent="1">
          <mxGeometry width="50" height="50" relative="1" as="geometry">
            <mxPoint x="91" y="160.55" as="sourcePoint" />
            <mxPoint x="111" y="160.55" as="targetPoint" />
            <Array as="points" />
          </mxGeometry>
        </mxCell>
        <mxCell id="zoif_BAcdFIrkg_Ye-2j-62" value="CRM (PK)" style="edgeLabel;html=1;align=center;verticalAlign=middle;resizable=0;points=[];fontSize=8;fontStyle=1" vertex="1" connectable="0" parent="1">
          <mxGeometry x="134.0029032258064" y="79.55" as="geometry" />
        </mxCell>
        <mxCell id="zoif_BAcdFIrkg_Ye-2j-63" value="nome" style="edgeLabel;html=1;align=center;verticalAlign=middle;resizable=0;points=[];fontSize=8;fontStyle=1" vertex="1" connectable="0" parent="1">
          <mxGeometry x="126.00011173184356" y="119.55000000000001" as="geometry" />
        </mxCell>
        <mxCell id="zoif_BAcdFIrkg_Ye-2j-64" value="telefone" style="edgeLabel;html=1;align=center;verticalAlign=middle;resizable=0;points=[];fontSize=8;fontStyle=1" vertex="1" connectable="0" parent="1">
          <mxGeometry x="140.00011173184356" y="129.55" as="geometry">
            <mxPoint x="-10" y="10" as="offset" />
          </mxGeometry>
        </mxCell>
        <mxCell id="zoif_BAcdFIrkg_Ye-2j-65" value="email" style="edgeLabel;html=1;align=center;verticalAlign=middle;resizable=0;points=[];fontSize=8;fontStyle=1" vertex="1" connectable="0" parent="1">
          <mxGeometry x="135.00011173184356" y="149.55" as="geometry">
            <mxPoint x="-10" y="10" as="offset" />
          </mxGeometry>
        </mxCell>
        <mxCell id="zoif_BAcdFIrkg_Ye-2j-66" value="" style="endArrow=oval;html=1;rounded=0;endFill=0;fontSize=8;fontStyle=1" edge="1" parent="1">
          <mxGeometry width="50" height="50" relative="1" as="geometry">
            <mxPoint x="91" y="180.55" as="sourcePoint" />
            <mxPoint x="111" y="180.55" as="targetPoint" />
            <Array as="points" />
          </mxGeometry>
        </mxCell>
        <mxCell id="zoif_BAcdFIrkg_Ye-2j-67" value="endereco" style="edgeLabel;html=1;align=center;verticalAlign=middle;resizable=0;points=[];fontSize=8;fontStyle=1" vertex="1" connectable="0" parent="1">
          <mxGeometry x="142.00011173184356" y="169.55" as="geometry">
            <mxPoint x="-10" y="10" as="offset" />
          </mxGeometry>
        </mxCell>
        <mxCell id="zoif_BAcdFIrkg_Ye-2j-68" value="" style="endArrow=none;html=1;rounded=0;endFill=0;fontSize=8;fontStyle=1" edge="1" parent="1">
          <mxGeometry width="50" height="50" relative="1" as="geometry">
            <mxPoint x="149" y="180.55" as="sourcePoint" />
            <mxPoint x="181" y="180.55" as="targetPoint" />
            <Array as="points" />
          </mxGeometry>
        </mxCell>
        <mxCell id="zoif_BAcdFIrkg_Ye-2j-69" value="" style="endArrow=none;html=1;rounded=0;endFill=0;fontSize=8;fontStyle=1" edge="1" parent="1">
          <mxGeometry width="50" height="50" relative="1" as="geometry">
            <mxPoint x="180" y="181" as="sourcePoint" />
            <mxPoint x="180" y="61" as="targetPoint" />
            <Array as="points" />
          </mxGeometry>
        </mxCell>
        <mxCell id="zoif_BAcdFIrkg_Ye-2j-70" value="" style="endArrow=oval;html=1;rounded=0;endFill=0;fontSize=8;fontStyle=1" edge="1" parent="1">
          <mxGeometry width="50" height="50" relative="1" as="geometry">
            <mxPoint x="180" y="61.46000000000001" as="sourcePoint" />
            <mxPoint x="200" y="61.46000000000001" as="targetPoint" />
            <Array as="points" />
          </mxGeometry>
        </mxCell>
        <mxCell id="zoif_BAcdFIrkg_Ye-2j-71" value="" style="endArrow=oval;html=1;rounded=0;endFill=0;fontSize=8;fontStyle=1" edge="1" parent="1">
          <mxGeometry width="50" height="50" relative="1" as="geometry">
            <mxPoint x="180" y="81.62" as="sourcePoint" />
            <mxPoint x="200" y="81.62" as="targetPoint" />
            <Array as="points" />
          </mxGeometry>
        </mxCell>
        <mxCell id="zoif_BAcdFIrkg_Ye-2j-72" value="" style="endArrow=oval;html=1;rounded=0;endFill=0;fontSize=8;fontStyle=1" edge="1" parent="1">
          <mxGeometry width="50" height="50" relative="1" as="geometry">
            <mxPoint x="180" y="101.62" as="sourcePoint" />
            <mxPoint x="200" y="101.62" as="targetPoint" />
            <Array as="points" />
          </mxGeometry>
        </mxCell>
        <mxCell id="zoif_BAcdFIrkg_Ye-2j-73" value="" style="endArrow=oval;html=1;rounded=0;endFill=0;fontSize=8;fontStyle=1" edge="1" parent="1">
          <mxGeometry width="50" height="50" relative="1" as="geometry">
            <mxPoint x="180" y="121.38" as="sourcePoint" />
            <mxPoint x="200" y="121.38" as="targetPoint" />
            <Array as="points" />
          </mxGeometry>
        </mxCell>
        <mxCell id="zoif_BAcdFIrkg_Ye-2j-74" value="" style="endArrow=oval;html=1;rounded=0;endFill=0;fontSize=8;fontStyle=1" edge="1" parent="1">
          <mxGeometry width="50" height="50" relative="1" as="geometry">
            <mxPoint x="180" y="141.38" as="sourcePoint" />
            <mxPoint x="200" y="141.38" as="targetPoint" />
            <Array as="points" />
          </mxGeometry>
        </mxCell>
        <mxCell id="zoif_BAcdFIrkg_Ye-2j-75" value="" style="endArrow=oval;html=1;rounded=0;endFill=0;fontSize=8;fontStyle=1" edge="1" parent="1">
          <mxGeometry width="50" height="50" relative="1" as="geometry">
            <mxPoint x="180" y="161" as="sourcePoint" />
            <mxPoint x="200" y="161" as="targetPoint" />
            <Array as="points" />
          </mxGeometry>
        </mxCell>
        <mxCell id="zoif_BAcdFIrkg_Ye-2j-76" value="rua" style="edgeLabel;html=1;align=center;verticalAlign=middle;resizable=0;points=[];fontSize=8;fontStyle=1" vertex="1" connectable="0" parent="1">
          <mxGeometry x="210.99684931506852" y="60" as="geometry" />
        </mxCell>
        <mxCell id="zoif_BAcdFIrkg_Ye-2j-77" value="numero" style="edgeLabel;html=1;align=center;verticalAlign=middle;resizable=0;points=[];fontSize=8;fontStyle=1" vertex="1" connectable="0" parent="1">
          <mxGeometry x="217.99684931506852" y="80" as="geometry" />
        </mxCell>
        <mxCell id="zoif_BAcdFIrkg_Ye-2j-78" value="complemento" style="edgeLabel;html=1;align=center;verticalAlign=middle;resizable=0;points=[];fontSize=8;fontStyle=1" vertex="1" connectable="0" parent="1">
          <mxGeometry x="228.99684931506852" y="100" as="geometry" />
        </mxCell>
        <mxCell id="zoif_BAcdFIrkg_Ye-2j-79" value="bairro" style="edgeLabel;html=1;align=center;verticalAlign=middle;resizable=0;points=[];fontSize=8;fontStyle=1" vertex="1" connectable="0" parent="1">
          <mxGeometry x="215.99684931506852" y="120" as="geometry" />
        </mxCell>
        <mxCell id="zoif_BAcdFIrkg_Ye-2j-80" value="CEP" style="edgeLabel;html=1;align=center;verticalAlign=middle;resizable=0;points=[];fontSize=8;fontStyle=1" vertex="1" connectable="0" parent="1">
          <mxGeometry x="210.99684931506852" y="140" as="geometry" />
        </mxCell>
        <mxCell id="zoif_BAcdFIrkg_Ye-2j-81" value="cidade" style="edgeLabel;html=1;align=center;verticalAlign=middle;resizable=0;points=[];fontSize=8;fontStyle=1" vertex="1" connectable="0" parent="1">
          <mxGeometry x="216.99684931506852" y="160" as="geometry" />
        </mxCell>
        <mxCell id="zoif_BAcdFIrkg_Ye-2j-82" value="" style="endArrow=oval;html=1;rounded=0;endFill=0;fontSize=8;fontStyle=1" edge="1" parent="1">
          <mxGeometry width="50" height="50" relative="1" as="geometry">
            <mxPoint x="180" y="180.97" as="sourcePoint" />
            <mxPoint x="200" y="180.97" as="targetPoint" />
            <Array as="points" />
          </mxGeometry>
        </mxCell>
        <mxCell id="zoif_BAcdFIrkg_Ye-2j-83" value="estado" style="edgeLabel;html=1;align=center;verticalAlign=middle;resizable=0;points=[];fontSize=8;fontStyle=1" vertex="1" connectable="0" parent="1">
          <mxGeometry x="216.99684931506852" y="180" as="geometry" />
        </mxCell>
        <mxCell id="zoif_BAcdFIrkg_Ye-2j-84" value="" style="endArrow=oval;html=1;rounded=0;endFill=0;align=left;fontSize=8;fontStyle=1" edge="1" parent="1">
          <mxGeometry width="50" height="50" relative="1" as="geometry">
            <mxPoint x="408" y="120" as="sourcePoint" />
            <mxPoint x="428" y="120" as="targetPoint" />
            <Array as="points" />
          </mxGeometry>
        </mxCell>
        <mxCell id="zoif_BAcdFIrkg_Ye-2j-85" value="data" style="edgeLabel;html=1;align=center;verticalAlign=middle;resizable=0;points=[];fontSize=8;fontStyle=1" vertex="1" connectable="0" parent="zoif_BAcdFIrkg_Ye-2j-84">
          <mxGeometry x="0.1581" y="-1" relative="1" as="geometry">
            <mxPoint x="20" y="-1" as="offset" />
          </mxGeometry>
        </mxCell>
        <mxCell id="zoif_BAcdFIrkg_Ye-2j-86" value="" style="endArrow=oval;html=1;rounded=0;startArrow=none;startFill=0;endFill=1;fontSize=8;startSize=6;jumpSize=6;shadow=0;strokeWidth=1;fontStyle=1" edge="1" parent="1">
          <mxGeometry width="50" height="50" relative="1" as="geometry">
            <mxPoint x="408" y="100" as="sourcePoint" />
            <mxPoint x="428" y="100" as="targetPoint" />
            <Array as="points" />
          </mxGeometry>
        </mxCell>
        <mxCell id="zoif_BAcdFIrkg_Ye-2j-87" value="" style="endArrow=oval;html=1;rounded=0;endFill=0;fontSize=8;fontStyle=1" edge="1" parent="1">
          <mxGeometry width="50" height="50" relative="1" as="geometry">
            <mxPoint x="408" y="140" as="sourcePoint" />
            <mxPoint x="428" y="140" as="targetPoint" />
            <Array as="points" />
          </mxGeometry>
        </mxCell>
        <mxCell id="zoif_BAcdFIrkg_Ye-2j-90" value="id (PK)" style="edgeLabel;html=1;align=center;verticalAlign=middle;resizable=0;points=[];fontSize=8;fontStyle=1" vertex="1" connectable="0" parent="1">
          <mxGeometry x="445.0029032258064" y="100" as="geometry" />
        </mxCell>
        <mxCell id="zoif_BAcdFIrkg_Ye-2j-91" value="hora" style="edgeLabel;html=1;align=center;verticalAlign=middle;resizable=0;points=[];fontSize=8;fontStyle=1" vertex="1" connectable="0" parent="1">
          <mxGeometry x="441.00011173184356" y="140" as="geometry" />
        </mxCell>
        <mxCell id="zoif_BAcdFIrkg_Ye-2j-96" value="" style="endArrow=none;html=1;rounded=0;exitX=0.117;exitY=-0.019;exitDx=0;exitDy=0;exitPerimeter=0;fontSize=8;fontStyle=1" edge="1" parent="1">
          <mxGeometry x="0.9971" y="-40" width="50" height="50" relative="1" as="geometry">
            <mxPoint x="408.36000000000007" y="200.19" as="sourcePoint" />
            <mxPoint x="408" y="100" as="targetPoint" />
            <Array as="points" />
            <mxPoint as="offset" />
          </mxGeometry>
        </mxCell>
        <mxCell id="zoif_BAcdFIrkg_Ye-2j-99" value="" style="endArrow=oval;html=1;rounded=0;startArrow=none;startFill=0;endFill=1;fontSize=8;startSize=6;jumpSize=6;shadow=0;strokeWidth=1;fontStyle=1" edge="1" parent="1">
          <mxGeometry width="50" height="50" relative="1" as="geometry">
            <mxPoint x="411" y="460.19" as="sourcePoint" />
            <mxPoint x="431" y="460.19" as="targetPoint" />
            <Array as="points" />
          </mxGeometry>
        </mxCell>
        <mxCell id="zoif_BAcdFIrkg_Ye-2j-100" value="" style="endArrow=oval;html=1;rounded=0;endFill=0;fontSize=8;fontStyle=1" edge="1" parent="1">
          <mxGeometry width="50" height="50" relative="1" as="geometry">
            <mxPoint x="411" y="480.19" as="sourcePoint" />
            <mxPoint x="431" y="480.19" as="targetPoint" />
            <Array as="points" />
          </mxGeometry>
        </mxCell>
        <mxCell id="zoif_BAcdFIrkg_Ye-2j-101" value="" style="endArrow=oval;html=1;rounded=0;endFill=0;fontSize=8;fontStyle=1" edge="1" parent="1">
          <mxGeometry width="50" height="50" relative="1" as="geometry">
            <mxPoint x="411" y="500.19" as="sourcePoint" />
            <mxPoint x="431" y="500.19" as="targetPoint" />
            <Array as="points" />
          </mxGeometry>
        </mxCell>
        <mxCell id="zoif_BAcdFIrkg_Ye-2j-102" value="" style="endArrow=oval;html=1;rounded=0;endFill=0;fontSize=8;fontStyle=1" edge="1" parent="1">
          <mxGeometry width="50" height="50" relative="1" as="geometry">
            <mxPoint x="411" y="520.19" as="sourcePoint" />
            <mxPoint x="431" y="520.19" as="targetPoint" />
            <Array as="points" />
          </mxGeometry>
        </mxCell>
        <mxCell id="zoif_BAcdFIrkg_Ye-2j-103" value="CPF (PK)" style="edgeLabel;html=1;align=center;verticalAlign=middle;resizable=0;points=[];fontSize=8;fontStyle=1" vertex="1" connectable="0" parent="1">
          <mxGeometry x="453.00290322580645" y="460.19" as="geometry" />
        </mxCell>
        <mxCell id="zoif_BAcdFIrkg_Ye-2j-104" value="nome" style="edgeLabel;html=1;align=center;verticalAlign=middle;resizable=0;points=[];fontSize=8;fontStyle=1" vertex="1" connectable="0" parent="1">
          <mxGeometry x="445.0001117318436" y="479.19" as="geometry" />
        </mxCell>
        <mxCell id="zoif_BAcdFIrkg_Ye-2j-105" value="telefone" style="edgeLabel;html=1;align=center;verticalAlign=middle;resizable=0;points=[];fontSize=8;fontStyle=1" vertex="1" connectable="0" parent="1">
          <mxGeometry x="460.0001117318436" y="489.19" as="geometry">
            <mxPoint x="-10" y="10" as="offset" />
          </mxGeometry>
        </mxCell>
        <mxCell id="zoif_BAcdFIrkg_Ye-2j-106" value="email" style="edgeLabel;html=1;align=center;verticalAlign=middle;resizable=0;points=[];fontSize=8;fontStyle=1" vertex="1" connectable="0" parent="1">
          <mxGeometry x="455.0001117318436" y="509.19" as="geometry">
            <mxPoint x="-10" y="10" as="offset" />
          </mxGeometry>
        </mxCell>
        <mxCell id="zoif_BAcdFIrkg_Ye-2j-107" value="" style="endArrow=oval;html=1;rounded=0;endFill=0;fontSize=8;fontStyle=1" edge="1" parent="1">
          <mxGeometry width="50" height="50" relative="1" as="geometry">
            <mxPoint x="411" y="540.19" as="sourcePoint" />
            <mxPoint x="431" y="540.19" as="targetPoint" />
            <Array as="points" />
          </mxGeometry>
        </mxCell>
        <mxCell id="zoif_BAcdFIrkg_Ye-2j-108" value="endereco" style="edgeLabel;html=1;align=center;verticalAlign=middle;resizable=0;points=[];fontSize=8;fontStyle=1" vertex="1" connectable="0" parent="1">
          <mxGeometry x="463.0001117318436" y="529.19" as="geometry">
            <mxPoint x="-10" y="10" as="offset" />
          </mxGeometry>
        </mxCell>
        <mxCell id="zoif_BAcdFIrkg_Ye-2j-109" value="" style="endArrow=none;html=1;rounded=0;fontSize=8;fontStyle=1" edge="1" parent="1">
          <mxGeometry x="0.9971" y="-40" width="50" height="50" relative="1" as="geometry">
            <mxPoint x="411" y="540.19" as="sourcePoint" />
            <mxPoint x="411" y="440.19" as="targetPoint" />
            <Array as="points" />
            <mxPoint as="offset" />
          </mxGeometry>
        </mxCell>
        <mxCell id="zoif_BAcdFIrkg_Ye-2j-141" value="" style="endArrow=oval;html=1;rounded=0;startArrow=none;startFill=0;endFill=1;fontSize=8;startSize=6;jumpSize=6;shadow=0;strokeWidth=1;fontStyle=1" edge="1" parent="1">
          <mxGeometry width="50" height="50" relative="1" as="geometry">
            <mxPoint x="91" y="460" as="sourcePoint" />
            <mxPoint x="111" y="460" as="targetPoint" />
            <Array as="points" />
          </mxGeometry>
        </mxCell>
        <mxCell id="zoif_BAcdFIrkg_Ye-2j-142" value="" style="endArrow=oval;html=1;rounded=0;endFill=0;fontSize=8;fontStyle=1" edge="1" parent="1">
          <mxGeometry width="50" height="50" relative="1" as="geometry">
            <mxPoint x="91" y="480" as="sourcePoint" />
            <mxPoint x="111" y="480" as="targetPoint" />
            <Array as="points" />
          </mxGeometry>
        </mxCell>
        <mxCell id="zoif_BAcdFIrkg_Ye-2j-143" value="" style="endArrow=oval;html=1;rounded=0;endFill=0;fontSize=8;fontStyle=1" edge="1" parent="1">
          <mxGeometry width="50" height="50" relative="1" as="geometry">
            <mxPoint x="91" y="500" as="sourcePoint" />
            <mxPoint x="111" y="500" as="targetPoint" />
            <Array as="points" />
          </mxGeometry>
        </mxCell>
        <mxCell id="zoif_BAcdFIrkg_Ye-2j-144" value="" style="endArrow=oval;html=1;rounded=0;endFill=0;fontSize=8;fontStyle=1" edge="1" parent="1">
          <mxGeometry width="50" height="50" relative="1" as="geometry">
            <mxPoint x="91" y="520" as="sourcePoint" />
            <mxPoint x="111" y="520" as="targetPoint" />
            <Array as="points" />
          </mxGeometry>
        </mxCell>
        <mxCell id="zoif_BAcdFIrkg_Ye-2j-145" value="id (PK)" style="edgeLabel;html=1;align=center;verticalAlign=middle;resizable=0;points=[];fontSize=8;fontStyle=1" vertex="1" connectable="0" parent="1">
          <mxGeometry x="129.00290322580645" y="459" as="geometry" />
        </mxCell>
        <mxCell id="zoif_BAcdFIrkg_Ye-2j-146" value="empresa" style="edgeLabel;html=1;align=center;verticalAlign=middle;resizable=0;points=[];fontSize=8;fontStyle=1" vertex="1" connectable="0" parent="1">
          <mxGeometry x="132.00011173184362" y="479" as="geometry" />
        </mxCell>
        <mxCell id="zoif_BAcdFIrkg_Ye-2j-147" value="tipo" style="edgeLabel;html=1;align=center;verticalAlign=middle;resizable=0;points=[];fontSize=8;fontStyle=1" vertex="1" connectable="0" parent="1">
          <mxGeometry x="133.00011173184362" y="490" as="geometry">
            <mxPoint x="-10" y="10" as="offset" />
          </mxGeometry>
        </mxCell>
        <mxCell id="zoif_BAcdFIrkg_Ye-2j-148" value="vencimento" style="edgeLabel;html=1;align=center;verticalAlign=middle;resizable=0;points=[];fontSize=8;fontStyle=1" vertex="1" connectable="0" parent="1">
          <mxGeometry x="148.00011173184362" y="509" as="geometry">
            <mxPoint x="-10" y="10" as="offset" />
          </mxGeometry>
        </mxCell>
        <mxCell id="zoif_BAcdFIrkg_Ye-2j-149" value="" style="endArrow=oval;html=1;rounded=0;endFill=0;fontSize=8;fontStyle=1" edge="1" parent="1">
          <mxGeometry width="50" height="50" relative="1" as="geometry">
            <mxPoint x="91" y="540" as="sourcePoint" />
            <mxPoint x="111" y="540" as="targetPoint" />
            <Array as="points" />
          </mxGeometry>
        </mxCell>
        <mxCell id="zoif_BAcdFIrkg_Ye-2j-150" value="coparticipacao" style="edgeLabel;html=1;align=center;verticalAlign=middle;resizable=0;points=[];fontSize=8;fontStyle=1" vertex="1" connectable="0" parent="1">
          <mxGeometry x="154.00011173184362" y="529" as="geometry">
            <mxPoint x="-10" y="10" as="offset" />
          </mxGeometry>
        </mxCell>
        <mxCell id="zoif_BAcdFIrkg_Ye-2j-151" value="" style="endArrow=none;html=1;rounded=0;fontSize=8;fontStyle=1" edge="1" parent="1">
          <mxGeometry x="0.9971" y="-40" width="50" height="50" relative="1" as="geometry">
            <mxPoint x="90" y="580" as="sourcePoint" />
            <mxPoint x="91" y="440" as="targetPoint" />
            <Array as="points" />
            <mxPoint as="offset" />
          </mxGeometry>
        </mxCell>
        <mxCell id="zoif_BAcdFIrkg_Ye-2j-152" value="(1,1)" style="text;html=1;align=center;verticalAlign=middle;resizable=0;points=[];autosize=1;strokeColor=none;fillColor=none;fontStyle=1;fontSize=10;" vertex="1" parent="1">
          <mxGeometry x="158" y="190" width="40" height="30" as="geometry" />
        </mxCell>
        <mxCell id="zoif_BAcdFIrkg_Ye-2j-154" value="(0,N)" style="text;html=1;align=center;verticalAlign=middle;resizable=0;points=[];autosize=1;strokeColor=none;fillColor=none;fontStyle=1;fontSize=10;" vertex="1" parent="1">
          <mxGeometry x="350" y="190" width="50" height="30" as="geometry" />
        </mxCell>
        <mxCell id="zoif_BAcdFIrkg_Ye-2j-155" value="(1,1)" style="text;html=1;align=center;verticalAlign=middle;resizable=0;points=[];autosize=1;strokeColor=none;fillColor=none;fontStyle=1;fontSize=10;" vertex="1" parent="1">
          <mxGeometry x="83" y="240" width="40" height="30" as="geometry" />
        </mxCell>
        <mxCell id="zoif_BAcdFIrkg_Ye-2j-156" value="(0,N)" style="text;html=1;align=center;verticalAlign=middle;resizable=0;points=[];autosize=1;strokeColor=none;fillColor=none;fontStyle=1;fontSize=10;" vertex="1" parent="1">
          <mxGeometry x="81" y="370.19" width="50" height="30" as="geometry" />
        </mxCell>
        <mxCell id="zoif_BAcdFIrkg_Ye-2j-157" value="(1,1)" style="text;html=1;align=center;verticalAlign=middle;resizable=0;points=[];autosize=1;strokeColor=none;fillColor=none;fontStyle=1;fontSize=10;" vertex="1" parent="1">
          <mxGeometry x="433" y="370.19" width="40" height="30" as="geometry" />
        </mxCell>
        <mxCell id="zoif_BAcdFIrkg_Ye-2j-158" value="(0,N)" style="text;html=1;align=center;verticalAlign=middle;resizable=0;points=[];autosize=1;strokeColor=none;fillColor=none;fontStyle=1;fontSize=10;" vertex="1" parent="1">
          <mxGeometry x="430" y="240" width="50" height="30" as="geometry" />
        </mxCell>
        <mxCell id="zoif_BAcdFIrkg_Ye-2j-160" value="" style="endArrow=oval;html=1;rounded=0;endFill=0;fontSize=8;fontStyle=1" edge="1" parent="1">
          <mxGeometry width="50" height="50" relative="1" as="geometry">
            <mxPoint x="90" y="559.73" as="sourcePoint" />
            <mxPoint x="110" y="559.73" as="targetPoint" />
            <Array as="points" />
          </mxGeometry>
        </mxCell>
        <mxCell id="zoif_BAcdFIrkg_Ye-2j-161" value="" style="endArrow=oval;html=1;rounded=0;endFill=0;fontSize=8;fontStyle=1" edge="1" parent="1">
          <mxGeometry width="50" height="50" relative="1" as="geometry">
            <mxPoint x="90" y="580" as="sourcePoint" />
            <mxPoint x="110" y="580" as="targetPoint" />
            <Array as="points" />
          </mxGeometry>
        </mxCell>
        <mxCell id="zoif_BAcdFIrkg_Ye-2j-162" value="CRM (FK)" style="edgeLabel;html=1;align=center;verticalAlign=middle;resizable=0;points=[];fontSize=8;fontStyle=1" vertex="1" connectable="0" parent="1">
          <mxGeometry x="133.0029032258064" y="560" as="geometry" />
        </mxCell>
        <mxCell id="zoif_BAcdFIrkg_Ye-2j-163" value="CPF (FK)" style="edgeLabel;html=1;align=center;verticalAlign=middle;resizable=0;points=[];fontSize=8;fontStyle=1" vertex="1" connectable="0" parent="1">
          <mxGeometry x="132.00290322580645" y="580" as="geometry" />
        </mxCell>
        <mxCell id="zoif_BAcdFIrkg_Ye-2j-164" value="" style="endArrow=oval;html=1;rounded=0;endFill=0;fontSize=8;fontStyle=1" edge="1" parent="1">
          <mxGeometry width="50" height="50" relative="1" as="geometry">
            <mxPoint x="409" y="159.22" as="sourcePoint" />
            <mxPoint x="429" y="159.22" as="targetPoint" />
            <Array as="points" />
          </mxGeometry>
        </mxCell>
        <mxCell id="zoif_BAcdFIrkg_Ye-2j-165" value="" style="endArrow=oval;html=1;rounded=0;endFill=0;fontSize=8;fontStyle=1" edge="1" parent="1">
          <mxGeometry width="50" height="50" relative="1" as="geometry">
            <mxPoint x="409" y="179.48999999999998" as="sourcePoint" />
            <mxPoint x="429" y="179.48999999999998" as="targetPoint" />
            <Array as="points" />
          </mxGeometry>
        </mxCell>
        <mxCell id="zoif_BAcdFIrkg_Ye-2j-166" value="CRM (FK)" style="edgeLabel;html=1;align=center;verticalAlign=middle;resizable=0;points=[];fontSize=8;fontStyle=1" vertex="1" connectable="0" parent="1">
          <mxGeometry x="452.00290322580645" y="159.48999999999998" as="geometry" />
        </mxCell>
        <mxCell id="zoif_BAcdFIrkg_Ye-2j-167" value="CPF (FK)" style="edgeLabel;html=1;align=center;verticalAlign=middle;resizable=0;points=[];fontSize=8;fontStyle=1" vertex="1" connectable="0" parent="1">
          <mxGeometry x="451.00290322580645" y="179.48999999999998" as="geometry" />
        </mxCell>
        <mxCell id="zoif_BAcdFIrkg_Ye-2j-253" value="" style="endArrow=none;html=1;rounded=0;endFill=0;fontSize=8;fontStyle=1" edge="1" parent="1">
          <mxGeometry width="50" height="50" relative="1" as="geometry">
            <mxPoint x="500" y="660" as="sourcePoint" />
            <mxPoint x="500" y="540" as="targetPoint" />
            <Array as="points" />
          </mxGeometry>
        </mxCell>
        <mxCell id="zoif_BAcdFIrkg_Ye-2j-254" value="" style="endArrow=oval;html=1;rounded=0;endFill=0;fontSize=8;fontStyle=1" edge="1" parent="1">
          <mxGeometry width="50" height="50" relative="1" as="geometry">
            <mxPoint x="470" y="540" as="sourcePoint" />
            <mxPoint x="520" y="540.46" as="targetPoint" />
            <Array as="points" />
          </mxGeometry>
        </mxCell>
        <mxCell id="zoif_BAcdFIrkg_Ye-2j-255" value="" style="endArrow=oval;html=1;rounded=0;endFill=0;fontSize=8;fontStyle=1" edge="1" parent="1">
          <mxGeometry width="50" height="50" relative="1" as="geometry">
            <mxPoint x="500" y="560.62" as="sourcePoint" />
            <mxPoint x="520" y="560.62" as="targetPoint" />
            <Array as="points" />
          </mxGeometry>
        </mxCell>
        <mxCell id="zoif_BAcdFIrkg_Ye-2j-256" value="" style="endArrow=oval;html=1;rounded=0;endFill=0;fontSize=8;fontStyle=1" edge="1" parent="1">
          <mxGeometry width="50" height="50" relative="1" as="geometry">
            <mxPoint x="500" y="580.62" as="sourcePoint" />
            <mxPoint x="520" y="580.62" as="targetPoint" />
            <Array as="points" />
          </mxGeometry>
        </mxCell>
        <mxCell id="zoif_BAcdFIrkg_Ye-2j-257" value="" style="endArrow=oval;html=1;rounded=0;endFill=0;fontSize=8;fontStyle=1" edge="1" parent="1">
          <mxGeometry width="50" height="50" relative="1" as="geometry">
            <mxPoint x="500" y="600.38" as="sourcePoint" />
            <mxPoint x="520" y="600.38" as="targetPoint" />
            <Array as="points" />
          </mxGeometry>
        </mxCell>
        <mxCell id="zoif_BAcdFIrkg_Ye-2j-258" value="" style="endArrow=oval;html=1;rounded=0;endFill=0;fontSize=8;fontStyle=1" edge="1" parent="1">
          <mxGeometry width="50" height="50" relative="1" as="geometry">
            <mxPoint x="500" y="620.38" as="sourcePoint" />
            <mxPoint x="520" y="620.38" as="targetPoint" />
            <Array as="points" />
          </mxGeometry>
        </mxCell>
        <mxCell id="zoif_BAcdFIrkg_Ye-2j-259" value="" style="endArrow=oval;html=1;rounded=0;endFill=0;fontSize=8;fontStyle=1" edge="1" parent="1">
          <mxGeometry width="50" height="50" relative="1" as="geometry">
            <mxPoint x="500" y="640" as="sourcePoint" />
            <mxPoint x="520" y="640" as="targetPoint" />
            <Array as="points" />
          </mxGeometry>
        </mxCell>
        <mxCell id="zoif_BAcdFIrkg_Ye-2j-260" value="rua" style="edgeLabel;html=1;align=center;verticalAlign=middle;resizable=0;points=[];fontSize=8;fontStyle=1" vertex="1" connectable="0" parent="1">
          <mxGeometry x="530.9968493150685" y="539" as="geometry" />
        </mxCell>
        <mxCell id="zoif_BAcdFIrkg_Ye-2j-261" value="numero" style="edgeLabel;html=1;align=center;verticalAlign=middle;resizable=0;points=[];fontSize=8;fontStyle=1" vertex="1" connectable="0" parent="1">
          <mxGeometry x="538.9968493150685" y="560" as="geometry" />
        </mxCell>
        <mxCell id="zoif_BAcdFIrkg_Ye-2j-262" value="complemento" style="edgeLabel;html=1;align=center;verticalAlign=middle;resizable=0;points=[];fontSize=8;fontStyle=1" vertex="1" connectable="0" parent="1">
          <mxGeometry x="550.9968493150685" y="580" as="geometry" />
        </mxCell>
        <mxCell id="zoif_BAcdFIrkg_Ye-2j-263" value="bairro" style="edgeLabel;html=1;align=center;verticalAlign=middle;resizable=0;points=[];fontSize=8;fontStyle=1" vertex="1" connectable="0" parent="1">
          <mxGeometry x="535.9968493150685" y="600" as="geometry" />
        </mxCell>
        <mxCell id="zoif_BAcdFIrkg_Ye-2j-264" value="CEP" style="edgeLabel;html=1;align=center;verticalAlign=middle;resizable=0;points=[];fontSize=8;fontStyle=1" vertex="1" connectable="0" parent="1">
          <mxGeometry x="531.9968493150685" y="620" as="geometry" />
        </mxCell>
        <mxCell id="zoif_BAcdFIrkg_Ye-2j-265" value="cidade" style="edgeLabel;html=1;align=center;verticalAlign=middle;resizable=0;points=[];fontSize=8;fontStyle=1" vertex="1" connectable="0" parent="1">
          <mxGeometry x="536.9968493150685" y="639" as="geometry" />
        </mxCell>
        <mxCell id="zoif_BAcdFIrkg_Ye-2j-266" value="" style="endArrow=oval;html=1;rounded=0;endFill=0;fontSize=8;fontStyle=1" edge="1" parent="1">
          <mxGeometry width="50" height="50" relative="1" as="geometry">
            <mxPoint x="500" y="659.97" as="sourcePoint" />
            <mxPoint x="520" y="659.97" as="targetPoint" />
            <Array as="points" />
          </mxGeometry>
        </mxCell>
        <mxCell id="zoif_BAcdFIrkg_Ye-2j-267" value="estado" style="edgeLabel;html=1;align=center;verticalAlign=middle;resizable=0;points=[];fontSize=8;fontStyle=1" vertex="1" connectable="0" parent="1">
          <mxGeometry x="536.9968493150685" y="659" as="geometry" />
        </mxCell>
      </root>
    </mxGraphModel>
  </diagram>
</mxfile>
